<svg xmlns="http://www.w3.org/2000/svg" width="99" height="50" viewBox="0 0 99 50" fill="none">
  <path d="M97.2812 1C81.6843 2.29974 80.7184 33.4164 65.2812 37C52.5514 39.9551 46.1054 23.1804 33.2812 25C19.3715 26.9737 14.9204 44.4536 1.28125 49H97.2812V1Z" fill="#ECFDF3"/>
  <path d="M97.2812 1C81.6843 2.29974 80.7184 33.4164 65.2812 37C52.5514 39.9551 46.1054 23.1804 33.2812 25C19.3715 26.9737 14.9204 44.4536 1.28125 49H97.2812V1Z" fill="url(#paint0_linear_2791_10967)"/>
  <path d="M1.28125 49C14.9204 44.4536 19.3715 26.9737 33.2812 25C46.1054 23.1804 52.5514 39.9551 65.2812 37C80.7184 33.4164 81.6843 2.29974 97.2812 1" stroke="#12B76A" stroke-width="2" stroke-linecap="round" stroke-linejoin="round"/>
  <defs>
    <linearGradient id="paint0_linear_2791_10967" x1="49.2812" y1="1" x2="49.2812" y2="49" gradientUnits="userSpaceOnUse">
      <stop offset="0.641167" stop-color="white" stop-opacity="0"/>
      <stop offset="1" stop-color="white"/>
    </linearGradient>
  </defs>
</svg>