<svg xmlns="http://www.w3.org/2000/svg" width="25" height="24" viewBox="0 0 25 24" fill="none">
  <path d="M12.4774 13C13.0366 13 13.4899 12.5523 13.4899 12C13.4899 11.4477 13.0366 11 12.4774 11C11.9182 11 11.4648 11.4477 11.4648 12C11.4648 12.5523 11.9182 13 12.4774 13Z" stroke="#4B5563" stroke-width="2" stroke-linecap="round" stroke-linejoin="round"/>
  <path d="M12.4774 6C13.0366 6 13.4899 5.55228 13.4899 5C13.4899 4.44772 13.0366 4 12.4774 4C11.9182 4 11.4648 4.44772 11.4648 5C11.4648 5.55228 11.9182 6 12.4774 6Z" stroke="#4B5563" stroke-width="2" stroke-linecap="round" stroke-linejoin="round"/>
  <path d="M12.4774 20C13.0366 20 13.4899 19.5523 13.4899 19C13.4899 18.4477 13.0366 18 12.4774 18C11.9182 18 11.4648 18.4477 11.4648 19C11.4648 19.5523 11.9182 20 12.4774 20Z" stroke="#4B5563" stroke-width="2" stroke-linecap="round" stroke-linejoin="round"/>
</svg>