<svg xmlns="http://www.w3.org/2000/svg" width="25" height="25" viewBox="0 0 25 25" fill="none">
  <path d="M12.5524 2.54883C8.57593 2.54883 5.35238 5.77238 5.35238 9.74883V14.0518L4.50385 14.9003C4.16065 15.2435 4.05799 15.7596 4.24372 16.208C4.42946 16.6565 4.86702 16.9488 5.35238 16.9488H19.7524C20.2377 16.9488 20.6753 16.6565 20.861 16.208C21.0468 15.7596 20.9441 15.2435 20.6009 14.9003L19.7524 14.0518V9.74883C19.7524 5.77238 16.5288 2.54883 12.5524 2.54883Z" fill="#111827"/>
  <path d="M12.5523 21.7488C10.5641 21.7488 8.95234 20.1371 8.95234 18.1488H16.1523C16.1523 20.1371 14.5406 21.7488 12.5523 21.7488Z" fill="#111827"/>
</svg>