<svg xmlns="http://www.w3.org/2000/svg" width="25" height="25" viewBox="0 0 25 25" fill="none">
  <path fill-rule="evenodd" clip-rule="evenodd" d="M5.89053 5.65128C6.35916 5.18265 7.11896 5.18265 7.58759 5.65128L12.7391 10.8027L17.8905 5.65128C18.3592 5.18265 19.119 5.18265 19.5876 5.65128C20.0562 6.11991 20.0562 6.8797 19.5876 7.34833L14.4361 12.4998L19.5876 17.6513C20.0562 18.1199 20.0562 18.8797 19.5876 19.3483C19.119 19.817 18.3592 19.817 17.8905 19.3483L12.7391 14.1969L7.58759 19.3483C7.11896 19.817 6.35916 19.817 5.89053 19.3483C5.42191 18.8797 5.42191 18.1199 5.89053 17.6513L11.042 12.4998L5.89053 7.34833C5.42191 6.8797 5.42191 6.11991 5.89053 5.65128Z" fill="#111827"/>
</svg>