<svg xmlns="http://www.w3.org/2000/svg" width="25" height="25" viewBox="0 0 25 25" fill="none">
  <path fill-rule="evenodd" clip-rule="evenodd" d="M11.6679 2.54883C11.2137 2.54883 10.7984 2.80563 10.5953 3.21217L9.72754 4.94883H5.67186C5.00956 4.94883 4.47266 5.48609 4.47266 6.14883C4.47266 6.81157 5.00956 7.34883 5.67186 7.34883L5.67186 19.3488C5.67186 20.6743 6.74567 21.7488 8.07028 21.7488H17.6639C18.9885 21.7488 20.0623 20.6743 20.0623 19.3488V7.34883C20.7246 7.34883 21.2616 6.81157 21.2616 6.14883C21.2616 5.48609 20.7246 4.94883 20.0623 4.94883H16.0067L15.1389 3.21217C14.9358 2.80563 14.5205 2.54883 14.0663 2.54883H11.6679ZM9.26948 9.74883C9.26948 9.08609 9.80639 8.54883 10.4687 8.54883C11.131 8.54883 11.6679 9.08609 11.6679 9.74883V16.9488C11.6679 17.6116 11.131 18.1488 10.4687 18.1488C9.80639 18.1488 9.26948 17.6116 9.26948 16.9488V9.74883ZM15.2655 8.54883C14.6032 8.54883 14.0663 9.08609 14.0663 9.74883V16.9488C14.0663 17.6116 14.6032 18.1488 15.2655 18.1488C15.9278 18.1488 16.4647 17.6116 16.4647 16.9488V9.74883C16.4647 9.08609 15.9278 8.54883 15.2655 8.54883Z" fill="#4B5563"/>
</svg>