<svg xmlns="http://www.w3.org/2000/svg" width="21" height="21" viewBox="0 0 21 21" fill="none">
  <path d="M10.0951 10.9814C10.5553 10.9814 10.9284 10.6083 10.9284 10.1481C10.9284 9.68787 10.5553 9.31478 10.0951 9.31478C9.63481 9.31478 9.26172 9.68787 9.26172 10.1481C9.26172 10.6083 9.63481 10.9814 10.0951 10.9814Z" stroke="#98A2B3" stroke-width="1.66667" stroke-linecap="round" stroke-linejoin="round"/>
  <path d="M10.0951 5.14811C10.5553 5.14811 10.9284 4.77502 10.9284 4.31478C10.9284 3.85454 10.5553 3.48145 10.0951 3.48145C9.63481 3.48145 9.26172 3.85454 9.26172 4.31478C9.26172 4.77502 9.63481 5.14811 10.0951 5.14811Z" stroke="#98A2B3" stroke-width="1.66667" stroke-linecap="round" stroke-linejoin="round"/>
  <path d="M10.0951 16.8148C10.5553 16.8148 10.9284 16.4417 10.9284 15.9814C10.9284 15.5212 10.5553 15.1481 10.0951 15.1481C9.63481 15.1481 9.26172 15.5212 9.26172 15.9814C9.26172 16.4417 9.63481 16.8148 10.0951 16.8148Z" stroke="#98A2B3" stroke-width="1.66667" stroke-linecap="round" stroke-linejoin="round"/>
</svg>