<svg xmlns="http://www.w3.org/2000/svg" width="21" height="20" viewBox="0 0 21 20" fill="none">
  <path fill-rule="evenodd" clip-rule="evenodd" d="M5.53888 7.29259C5.72641 7.10512 5.98072 6.99981 6.24588 6.99981C6.51104 6.99981 6.76535 7.10512 6.95288 7.29259L10.2459 10.5856L13.5389 7.29259C13.6311 7.19708 13.7415 7.1209 13.8635 7.06849C13.9855 7.01608 14.1167 6.9885 14.2495 6.98734C14.3823 6.98619 14.5139 7.01149 14.6368 7.06177C14.7597 7.11205 14.8714 7.18631 14.9653 7.2802C15.0592 7.37409 15.1334 7.48574 15.1837 7.60864C15.234 7.73154 15.2593 7.86321 15.2581 7.99599C15.257 8.12877 15.2294 8.25999 15.177 8.382C15.1246 8.504 15.0484 8.61435 14.9529 8.70659L10.9529 12.7066C10.7654 12.8941 10.511 12.9994 10.2459 12.9994C9.98072 12.9994 9.72641 12.8941 9.53888 12.7066L5.53888 8.70659C5.35141 8.51907 5.24609 8.26476 5.24609 7.99959C5.24609 7.73443 5.35141 7.48012 5.53888 7.29259Z" fill="black"/>
</svg>