<svg xmlns="http://www.w3.org/2000/svg" width="21" height="22" viewBox="0 0 21 22" fill="none">
  <path fill-rule="evenodd" clip-rule="evenodd" d="M6.14025 8.3059C6.32765 8.10906 6.58179 7.99848 6.84678 7.99848C7.11177 7.99848 7.36591 8.10906 7.55331 8.3059L10.8441 11.7636L14.135 8.3059C14.2271 8.20562 14.3374 8.12563 14.4593 8.0706C14.5813 8.01557 14.7124 7.9866 14.8451 7.98539C14.9778 7.98418 15.1094 8.01075 15.2322 8.06354C15.355 8.11634 15.4666 8.1943 15.5604 8.29289C15.6542 8.39148 15.7284 8.50871 15.7787 8.63775C15.8289 8.76679 15.8542 8.90506 15.8531 9.04448C15.8519 9.18389 15.8244 9.32167 15.772 9.44978C15.7196 9.57788 15.6435 9.69374 15.548 9.7906L11.5507 13.9906C11.3633 14.1874 11.1091 14.298 10.8441 14.298C10.5791 14.298 10.325 14.1874 10.1376 13.9906L6.14025 9.7906C5.9529 9.5937 5.84766 9.32668 5.84766 9.04825C5.84766 8.76983 5.9529 8.50281 6.14025 8.3059Z" fill="#4B5563"/>
</svg>