<svg xmlns="http://www.w3.org/2000/svg" width="53" height="53" viewBox="0 0 53 53" fill="none">
  <path fill-rule="evenodd" clip-rule="evenodd" d="M7.79179 16.9931C6.24217 17.9616 5.30078 19.6601 5.30078 21.4875V42.4C5.30078 45.3271 7.67367 47.7 10.6008 47.7H42.4008C45.3279 47.7 47.7008 45.3271 47.7008 42.4V21.4875C47.7008 19.6601 46.7594 17.9616 45.2098 16.9931L29.3098 7.05561C27.5911 5.98146 25.4104 5.98146 23.6918 7.05561L7.79179 16.9931ZM14.7207 23.412C13.503 22.6001 11.8577 22.9292 11.0458 24.147C10.234 25.3647 10.5631 27.01 11.7808 27.8218L25.0308 36.6552C25.921 37.2486 27.0806 37.2486 27.9707 36.6552L41.2207 27.8218C42.4385 27.01 42.7676 25.3647 41.9557 24.147C41.1439 22.9292 39.4986 22.6001 38.2808 23.412L26.5008 31.2653L14.7207 23.412Z" fill="#6B7280"/>
</svg>