<svg xmlns="http://www.w3.org/2000/svg" width="21" height="21" viewBox="0 0 21 21" fill="none">
  <path fill-rule="evenodd" clip-rule="evenodd" d="M5.85938 4.14844V7.14844H4.85938C3.75481 7.14844 2.85938 8.04387 2.85938 9.14844V12.1484C2.85938 13.253 3.75481 14.1484 4.85938 14.1484H5.85938V16.1484C5.85938 17.253 6.75481 18.1484 7.85938 18.1484H13.8594C14.9639 18.1484 15.8594 17.253 15.8594 16.1484V14.1484H16.8594C17.9639 14.1484 18.8594 13.253 18.8594 12.1484V9.14844C18.8594 8.04387 17.9639 7.14844 16.8594 7.14844H15.8594V4.14844C15.8594 3.04387 14.9639 2.14844 13.8594 2.14844H7.85938C6.75481 2.14844 5.85938 3.04387 5.85938 4.14844ZM13.8594 4.14844H7.85938V7.14844H13.8594V4.14844ZM13.8594 12.1484H7.85938V16.1484H13.8594V12.1484Z" fill="#4B5563"/>
</svg>