<svg xmlns="http://www.w3.org/2000/svg" width="21" height="21" viewBox="0 0 21 21" fill="none">
  <path fill-rule="evenodd" clip-rule="evenodd" d="M8.09375 4.64823C7.03288 4.64823 6.01547 5.06965 5.26532 5.8198C4.51518 6.56995 4.09375 7.58736 4.09375 8.64823C4.09375 9.70909 4.51518 10.7265 5.26532 11.4767C6.01547 12.2268 7.03288 12.6482 8.09375 12.6482C9.15462 12.6482 10.172 12.2268 10.9222 11.4767C11.6723 10.7265 12.0938 9.70909 12.0938 8.64823C12.0938 7.58736 11.6723 6.56995 10.9222 5.8198C10.172 5.06965 9.15462 4.64823 8.09375 4.64823ZM2.09375 8.64823C2.09363 7.70393 2.31639 6.77294 2.74392 5.93097C3.17145 5.089 3.79167 4.35983 4.55415 3.80275C5.31662 3.24568 6.19981 2.87644 7.1319 2.72506C8.06398 2.57368 9.01863 2.64444 9.91821 2.93158C10.8178 3.21872 11.6369 3.71413 12.3089 4.37752C12.9809 5.04092 13.4869 5.85356 13.7856 6.74936C14.0843 7.64516 14.1674 8.59882 14.0281 9.53278C13.8887 10.4667 13.5309 11.3546 12.9838 12.1242L17.8008 16.9412C17.9829 17.1298 18.0837 17.3824 18.0814 17.6446C18.0791 17.9068 17.974 18.1576 17.7886 18.343C17.6032 18.5285 17.3523 18.6336 17.0902 18.6359C16.828 18.6382 16.5754 18.5374 16.3867 18.3552L11.5708 13.5392C10.6731 14.1775 9.6171 14.5564 8.51843 14.6343C7.41975 14.7123 6.32082 14.4863 5.34205 13.9812C4.36328 13.4761 3.54244 12.7113 2.96947 11.7706C2.39651 10.8299 2.09354 9.74966 2.09375 8.64823Z" fill="#6B7280"/>
</svg>