<svg xmlns="http://www.w3.org/2000/svg" width="21" height="20" viewBox="0 0 21 20" fill="none">
  <path d="M18.0475 5.98396C18.0552 6.15996 18.0552 6.32796 18.0552 6.50396C18.063 11.84 14.1426 18 6.97319 18C4.85865 18 2.7827 17.368 1 16.184C1.30869 16.224 1.61738 16.24 1.92608 16.24C3.6779 16.24 5.38343 15.632 6.76483 14.504C5.09789 14.472 3.6316 13.344 3.12226 11.696C3.70877 11.816 4.31072 11.792 4.8818 11.624C3.06824 11.256 1.76401 9.59997 1.7563 7.67197C1.7563 7.65597 1.7563 7.63997 1.7563 7.62397C2.29651 7.93597 2.90617 8.11197 3.52356 8.12797C1.81803 6.94396 1.28554 4.58396 2.31966 2.73595C4.30301 5.26396 7.22015 6.79196 10.3534 6.95996C10.037 5.55996 10.4691 4.08796 11.4801 3.09595C13.0467 1.56795 15.5162 1.64795 16.998 3.27195C17.87 3.09595 18.7112 2.75995 19.4752 2.28795C19.182 3.22395 18.5723 4.01596 17.762 4.51996C18.5337 4.42396 19.29 4.20796 20 3.88795C19.4752 4.70396 18.8115 5.40796 18.0475 5.98396Z" fill="white"/>
</svg>