<svg xmlns="http://www.w3.org/2000/svg" width="12" height="12" viewBox="0 0 12 12" fill="none">
  <g clip-path="url(#clip0_437_29659)">
    <path d="M3.5 8C2.39543 8 1.5 7.10457 1.5 6C1.5 5.04647 2.16728 4.2488 3.06035 4.04848C3.02084 3.87197 3 3.68842 3 3.5C3 2.11929 4.11929 1 5.5 1C6.70965 1 7.71864 1.85913 7.95009 3.00049C7.96669 3.00016 7.98332 3 8 3C9.38071 3 10.5 4.11929 10.5 5.5C10.5 6.70948 9.64112 7.71836 8.5 7.94999M7.5 6.5L6 5M6 5L4.5 6.5M6 5L6 11" stroke="white" stroke-width="2" stroke-linecap="round" stroke-linejoin="round"/>
  </g>
  <defs>
    <clipPath id="clip0_437_29659">
      <rect width="12" height="12" fill="white"/>
    </clipPath>
  </defs>
</svg>