<svg width="24" height="24" viewBox="0 0 24 24" fill="none" xmlns="http://www.w3.org/2000/svg">
    <g clip-path="url(#wh70w57k1a)">
        <path d="M23.501 17.967 15.023 2.462c-1.362-2.281-4.682-2.284-6.046 0L.499 17.967c-1.393 2.33.294 5.283 3.023 5.283h16.956c2.727 0 4.416-2.95 3.024-5.283zM12 20.452a1.404 1.404 0 0 1-1.406-1.4c0-.77.63-1.398 1.406-1.398.775 0 1.406.627 1.406 1.399 0 .771-.63 1.399-1.406 1.399zm1.406-5.596c0 .771-.63 1.399-1.406 1.399a1.404 1.404 0 0 1-1.406-1.4V7.862c0-.772.63-1.4 1.406-1.4.775 0 1.406.628 1.406 1.4v6.995z" fill="#EE1D52"/>
    </g>
    <defs>
        <clipPath id="wh70w57k1a">
            <path fill="#fff" d="M0 0h24v24H0z"/>
        </clipPath>
    </defs>
</svg>
